<?xml version="1.0" encoding="UTF-8" standalone="no"?>
<!DOCTYPE svg PUBLIC "-//W3C//DTD SVG 1.1//EN" "http://www.w3.org/Graphics/SVG/1.1/DTD/svg11.dtd">
<svg width="100%" height="100%" viewBox="0 0 300 300" version="1.1" xmlns="http://www.w3.org/2000/svg" xmlns:xlink="http://www.w3.org/1999/xlink" xml:space="preserve" xmlns:serif="http://www.serif.com/" style="fill-rule:evenodd;clip-rule:evenodd;stroke-linejoin:round;stroke-miterlimit:1.41421;">
    <g transform="matrix(0.954198,0,0,0.957854,6.87023,6.80077)">
        <rect x="19" y="19" width="262" height="261" style="fill:rgb(32,31,45);"/>
    </g>
    <g transform="matrix(1,0,0,1,26.7418,-13.12)">
        <path d="M137.08,78.28C126.28,78.28 115.72,80.44 105.88,85C96.28,89.32 87.88,95.56 80.44,103.24C65.56,119.32 57.4,140.44 57.4,163C57.4,185.56 65.56,206.92 80.44,223C87.88,230.68 96.28,236.92 105.88,241.24C115.72,245.56 126.28,247.96 137.08,247.96C146.2,247.96 155.32,246.28 163.96,242.92C172.12,239.8 179.8,235.24 186.76,229.24C189.64,226.84 189.88,222.52 187.48,219.64C185.08,216.76 180.76,216.28 177.88,218.92C172.12,223.72 165.88,227.56 158.92,230.2C151.96,232.84 144.52,234.28 137.08,234.28C119.56,234.28 103,226.84 90.52,213.64C89.08,211.72 87.4,210.04 86.2,208.12L115.72,155.8C123.88,141.4 124.84,125.32 118.36,109.48C116.44,104.68 114.04,100.6 111.88,97.24C119.8,93.88 128.2,91.96 137.08,91.96C151.96,91.96 166.12,97.24 177.64,107.32C180.52,109.72 184.84,109.48 187.48,106.6C189.88,103.48 189.4,99.16 186.52,96.76C179.8,91 172.12,86.44 163.72,83.32C155.08,79.96 146.2,78.28 137.08,78.28ZM100.12,104.2C101.8,106.84 103.96,110.44 105.64,114.76C110.68,126.76 109.96,138.28 103.72,149.08L78.04,194.68C73.48,184.84 71.08,174.28 71.08,163C71.08,144.04 78.04,126.04 90.52,112.6C93.64,109.48 96.76,106.6 100.12,104.2Z" style="fill:rgb(222,171,76);fill-rule:nonzero;"/>
    </g>
</svg>
