<svg viewBox="0 0 32 32" xmlns="http://www.w3.org/2000/svg" fill="#fff"><g data-name="anchor fm media social"><path d="M14 15h-3.28A2 2 0 009 14a2 2 0 000 4 2 2 0 001.72-1H14a1 1 0 000-2z"/><path d="M16.5 20.33a5 5 0 000-8.66 1 1 0 00-1 1.73 3 3 0 010 5.2 1 1 0 00-.36 1.4 1 1 0 00.86.5 1 1 0 00.5-.17z"/><path d="M17.43 23.23a8 8 0 000-14.46 1 1 0 00-.86 1.81 6 6 0 010 10.84 1 1 0 00.43 1.91 1.08 1.08 0 00.43-.1z"/><path d="M18.4 5.92a1 1 0 10-.8 1.83 9 9 0 010 16.5 1 1 0 00-.52 1.32 1 1 0 00.92.6 1 1 0 00.4-.09 11 11 0 000-20.16z"/></g></svg>