<?xml version="1.0" encoding="UTF-8" standalone="no"?><!DOCTYPE svg PUBLIC "-//W3C//DTD SVG 1.1//EN" "http://www.w3.org/Graphics/SVG/1.1/DTD/svg11.dtd"><svg width="100%" height="100%" viewBox="0 0 902 405" version="1.1" xmlns="http://www.w3.org/2000/svg" xmlns:xlink="http://www.w3.org/1999/xlink" xml:space="preserve" xmlns:serif="http://www.serif.com/" style="fill-rule:evenodd;clip-rule:evenodd;stroke-linejoin:round;stroke-miterlimit:2;"><g transform="matrix(0.182749,0,0,0.182753,-191.704,-486.672)"><g transform="matrix(750,0,0,750,3152,3631.5)"><path d="M0.266,-0.181l0.066,-0.065l0,-0.284l-0.224,0l-0.072,0.072l0,0.209l0.035,0.028l0,0.099l0.056,0.056l0.124,0l0.011,0.011l0,0.084l-0.011,0.011l-0.214,0l0,0.07l0.243,0l0.052,-0.052l0,-0.142l-0.052,-0.052l-0.124,0l-0.015,-0.015l0,-0.03l0.125,0Zm-0.16,-0.248l0.031,-0.031l0.125,0l0,0.185l-0.025,0.024l-0.089,0l-0.042,-0.032l0,-0.146Z" style="fill:#fff;fill-rule:nonzero;"/></g><g transform="matrix(750,0,0,750,3437,3631.5)"><path d="M0.228,0l-0.081,-0.08l0,-0.55l-0.106,0l0,-0.07l0.176,0l0,0.591l0.04,0.039l0.082,0l0,0.07l-0.111,0Z" style="fill:#fff;fill-rule:nonzero;"/></g><g transform="matrix(750,0,0,750,3722,3631.5)"><path d="M0.273,0l-0.167,0l-0.065,-0.066l0,-0.398l0.065,-0.066l0.167,0l0.066,0.066l0,0.398l-0.066,0.066Zm-0.138,-0.07l0.109,0l0.025,-0.025l0,-0.34l-0.025,-0.025l-0.109,0l-0.024,0.025l0,0.34l0.024,0.025Z" style="fill:#fff;fill-rule:nonzero;"/></g><g transform="matrix(750,0,0,750,4007,3631.5)"><path d="M0.274,0l-0.168,0l-0.065,-0.066l0,-0.115l0.07,0l0,0.086l0.024,0.025l0.11,0l0.024,-0.025l0,-0.078l-0.228,-0.176l0,-0.115l0.065,-0.066l0.168,0l0.065,0.066l0,0.11l-0.07,0l0,-0.081l-0.024,-0.025l-0.11,0l-0.024,0.025l0,0.051l0.228,0.177l0,0.141l-0.065,0.066Z" style="fill:#fff;fill-rule:nonzero;"/></g><g transform="matrix(750,0,0,750,4292,3631.5)"><path d="M0.283,-0.53l-0.208,0l0,0.07l0.179,0l0.015,0.014l0,0.11l-0.016,-0.015l-0.147,0l-0.066,0.065l0,0.22l0.066,0.066l0.233,0l0,-0.475l-0.056,-0.055Zm-0.014,0.46l-0.134,0l-0.025,-0.025l0,-0.162l0.025,-0.024l0.089,0l0.045,0.044l0,0.167Z" style="fill:#fff;fill-rule:nonzero;"/></g><g transform="matrix(750,0,0,750,4577,3631.5)"><path d="M0.285,-0.53l-0.137,0l-0.023,0.03l-0.031,-0.03l-0.053,0l0,0.07l0.024,0l0.03,0.03l0,0.36l-0.054,0l0,0.07l0.219,0l0,-0.07l-0.095,0l0,-0.368l0.017,-0.022l0.069,0l0.018,0.023l0,0.082l0.07,0l0,-0.107l-0.054,-0.068Z" style="fill:#fff;fill-rule:nonzero;"/></g><g transform="matrix(750,0,0,750,4862,3631.5)"><path d="M0.215,-0.602l-0.07,0l0,-0.099l0.07,0l0,0.099Zm-0.067,0.602l0,-0.46l-0.108,0l0,-0.07l0.178,0l0,0.46l0.121,-0.001l0.001,0.071l-0.192,0Z" style="fill:#fff;fill-rule:nonzero;"/></g><g transform="matrix(750,0,0,750,5147,3631.5)"><path d="M0.273,0l-0.167,0l-0.065,-0.066l0,-0.464l0.07,0l0,0.435l0.024,0.025l0.109,0l0.025,-0.025l0,-0.435l0.07,0l0,0.464l-0.066,0.066Z" style="fill:#fff;fill-rule:nonzero;"/></g><g transform="matrix(750,0,0,750,5432,3631.5)"><path d="M0.274,0l-0.168,0l-0.065,-0.066l0,-0.115l0.07,0l0,0.086l0.024,0.025l0.11,0l0.024,-0.025l0,-0.078l-0.228,-0.176l0,-0.115l0.065,-0.066l0.168,0l0.065,0.066l0,0.11l-0.07,0l0,-0.081l-0.024,-0.025l-0.11,0l-0.024,0.025l0,0.051l0.228,0.177l0,0.141l-0.065,0.066Z" style="fill:#fff;fill-rule:nonzero;"/></g><g transform="matrix(750,0,0,750,5717,3631.5)"><path d="M0.339,0l-0.298,0l0,-0.13l0.228,-0.299l0,-0.031l-0.158,0l0,0.106l-0.07,0l0,-0.176l0.298,0l0,0.125l-0.228,0.298l0,0.037l0.158,0l0,-0.11l0.07,0l0,0.18Z" style="fill:#fff;fill-rule:nonzero;"/></g><g transform="matrix(750,0,0,750,2867,4431.5)"><path d="M0.273,-0.53l-0.127,0l-0.035,0.036l0,-0.036l-0.07,0l0,0.641l0.07,0l0,-0.111l0.162,0l0.066,-0.066l0,-0.398l-0.066,-0.066Zm-0.004,0.435l-0.025,0.025l-0.133,0l0,-0.325l0.062,-0.065l0.071,0l0.025,0.025l0,0.34Z" style="fill:#fff;fill-rule:nonzero;"/></g><g transform="matrix(750,0,0,750,3152,4431.5)"><path d="M0.285,-0.53l-0.137,0l-0.023,0.03l-0.031,-0.03l-0.053,0l0,0.07l0.024,0l0.03,0.03l0,0.36l-0.054,0l0,0.07l0.219,0l0,-0.07l-0.095,0l0,-0.368l0.017,-0.022l0.069,0l0.018,0.023l0,0.082l0.07,0l0,-0.107l-0.054,-0.068Z" style="fill:#fff;fill-rule:nonzero;"/></g><g transform="matrix(750,0,0,750,3437,4431.5)"><path d="M0.273,0l-0.167,0l-0.065,-0.066l0,-0.398l0.065,-0.066l0.167,0l0.066,0.066l0,0.398l-0.066,0.066Zm-0.138,-0.07l0.109,0l0.025,-0.025l0,-0.34l-0.025,-0.025l-0.109,0l-0.024,0.025l0,0.34l0.024,0.025Z" style="fill:#fff;fill-rule:nonzero;"/></g><g transform="matrix(750,0,0,750,3722,4431.5)"><path d="M0.266,-0.181l0.066,-0.065l0,-0.284l-0.224,0l-0.072,0.072l0,0.209l0.035,0.028l0,0.099l0.056,0.056l0.124,0l0.011,0.011l0,0.084l-0.011,0.011l-0.214,0l0,0.07l0.243,0l0.052,-0.052l0,-0.142l-0.052,-0.052l-0.124,0l-0.015,-0.015l0,-0.03l0.125,0Zm-0.16,-0.248l0.031,-0.031l0.125,0l0,0.185l-0.025,0.024l-0.089,0l-0.042,-0.032l0,-0.146Z" style="fill:#fff;fill-rule:nonzero;"/></g><g transform="matrix(750,0,0,750,4007,4431.5)"><path d="M0.285,-0.53l-0.137,0l-0.023,0.03l-0.031,-0.03l-0.053,0l0,0.07l0.024,0l0.03,0.03l0,0.36l-0.054,0l0,0.07l0.219,0l0,-0.07l-0.095,0l0,-0.368l0.017,-0.022l0.069,0l0.018,0.023l0,0.082l0.07,0l0,-0.107l-0.054,-0.068Z" style="fill:#fff;fill-rule:nonzero;"/></g><g transform="matrix(750,0,0,750,4292,4431.5)"><path d="M0.283,-0.53l-0.208,0l0,0.07l0.179,0l0.015,0.014l0,0.11l-0.016,-0.015l-0.147,0l-0.066,0.065l0,0.22l0.066,0.066l0.233,0l0,-0.475l-0.056,-0.055Zm-0.014,0.46l-0.134,0l-0.025,-0.025l0,-0.162l0.025,-0.024l0.089,0l0.045,0.044l0,0.167Z" style="fill:#fff;fill-rule:nonzero;"/></g><g transform="matrix(750,0,0,750,4577,4431.5)"><path d="M0.232,-0.53l-0.041,0.041l-0.041,-0.041l-0.11,0l0,0.53l0.07,0l0,-0.46l0.011,0l0.035,0.035l0,0.069l0.07,0l0,-0.069l0.035,-0.035l0.009,0l0,0.46l0.07,0l0,-0.53l-0.108,0Z" style="fill:#fff;fill-rule:nonzero;"/></g><g transform="matrix(750,0,0,750,4862,4431.5)"><path d="M0.215,-0.602l-0.07,0l0,-0.099l0.07,0l0,0.099Zm-0.067,0.602l0,-0.46l-0.108,0l0,-0.07l0.178,0l0,0.46l0.121,-0.001l0.001,0.071l-0.192,0Z" style="fill:#fff;fill-rule:nonzero;"/></g><g transform="matrix(750,0,0,750,5147,4431.5)"><path d="M0.274,0l-0.168,0l-0.065,-0.066l0,-0.115l0.07,0l0,0.086l0.024,0.025l0.11,0l0.024,-0.025l0,-0.078l-0.228,-0.176l0,-0.115l0.065,-0.066l0.168,0l0.065,0.066l0,0.11l-0.07,0l0,-0.081l-0.024,-0.025l-0.11,0l-0.024,0.025l0,0.051l0.228,0.177l0,0.141l-0.065,0.066Z" style="fill:#fff;fill-rule:nonzero;"/></g><g transform="matrix(750,0,0,750,5432,4431.5)"><path d="M0.317,-0.07l-0.082,0l-0.02,-0.019l0,-0.371l0.124,0l0,-0.07l-0.124,0l0,-0.103l-0.07,0l0,0.103l-0.104,0l0,0.07l0.104,0l0,0.4l0.061,0.06l0.111,0l0,-0.07Z" style="fill:#fff;fill-rule:nonzero;"/></g><g transform="matrix(750,0,0,750,5717,4431.5)"><path d="M0.269,-0.53l0,0.419l-0.028,0l-0.13,-0.128l0,-0.291l-0.07,0l0,0.32l0.171,0.169l0.057,0l0,0.046l-0.035,0.036l-0.143,0l0,0.07l0.172,0l0.076,-0.077l0,-0.564l-0.07,0Z" style="fill:#fff;fill-rule:nonzero;"/></g></g><g><rect x="237.573" y="192.987" width="9.503" height="18.275" style="fill:#fff;"/><rect x="219.299" y="174.712" width="9.503" height="54.826" style="fill:#fff;"/><rect x="201.024" y="156.437" width="9.503" height="91.377" style="fill:#fff;"/><rect x="182.749" y="119.886" width="9.503" height="164.478" style="fill:#fff;"/><rect x="164.474" y="138.161" width="9.503" height="127.927" style="fill:#fff;"/><rect x="146.199" y="119.977" width="9.503" height="164.295" style="fill:#fff;"/><rect x="127.924" y="156.437" width="9.503" height="91.377" style="fill:#fff;"/><rect x="109.649" y="179.281" width="9.503" height="45.688" style="fill:#fff;"/><rect x="91.374" y="183.85" width="9.503" height="36.551" style="fill:#fff;"/><rect x="73.1" y="170.143" width="9.503" height="63.964" style="fill:#fff;"/><rect x="54.825" y="138.161" width="9.503" height="127.927" style="fill:#fff;"/><rect x="36.55" y="156.437" width="9.503" height="91.377" style="fill:#fff;"/><rect x="18.275" y="174.712" width="9.503" height="54.826" style="fill:#fff;"/><rect x="0" y="192.987" width="9.503" height="18.275" style="fill:#fff;"/></g></svg>