<svg xmlns="http://www.w3.org/2000/svg" fill-rule="evenodd" clip-rule="evenodd" stroke-linejoin="round" stroke-miterlimit="2" viewBox="0 0 902 405"><path d="M420.78 152.187l9.045-8.91v-38.926h-30.701l-9.869 9.869v28.646l4.797 3.838v13.57l7.676 7.675h16.995l1.508 1.508v11.513l-1.508 1.508h-29.33v9.595h33.305l7.127-7.128v-19.463l-7.127-7.127h-16.996l-2.055-2.056v-4.112h17.132zm-21.93-33.992l4.248-4.25h17.133v25.358l-3.427 3.29h-12.198l-5.757-4.387v-20.011zM467.654 176.996l-11.102-10.966V90.645h-14.528V81.05h24.123v81.005l5.482 5.346h11.24v9.595h-15.215zM525.906 176.996h-22.89l-8.909-9.047v-54.552l8.91-9.046h22.889l9.046 9.046v54.552l-9.046 9.047zM506.99 167.4h14.94l3.426-3.427v-46.602l-3.426-3.426h-14.94l-3.29 3.426v46.602l3.29 3.427zM578.126 176.996H555.1l-8.91-9.047v-15.762h9.595v11.787l3.29 3.427h15.076l3.29-3.427v-10.69l-31.25-24.124v-15.763l8.909-9.046h23.026l8.91 9.046v15.078h-9.595v-11.103l-3.29-3.426h-15.076l-3.29 3.426v6.99l31.25 24.261v19.326l-8.909 9.047zM631.443 104.351h-28.509v9.595h24.534l2.056 1.919v15.077l-2.193-2.056h-20.148l-9.046 8.909v30.154l9.046 9.047h31.936V111.89l-7.676-7.539zm-1.919 63.05h-18.366l-3.426-3.427V141.77l3.426-3.29h12.199l6.167 6.031v22.89zM683.8 104.351h-18.777l-3.152 4.112-4.249-4.112h-7.264v9.595h3.29l4.111 4.112V167.4h-7.401v9.595h30.016V167.4h-13.02v-50.44l2.33-3.015h9.457l2.467 3.152v11.24h9.594v-14.666l-7.401-9.32zM726.29 94.483h-9.594v-13.57h9.594v13.57zm-9.183 82.513v-63.05h-14.803v-9.595h24.397v63.05l16.585-.137.137 9.732h-26.316zM786.323 176.996h-22.89l-8.908-9.047v-63.598h9.594v59.623l3.29 3.427h14.94l3.426-3.427v-59.623h9.594v63.598l-9.046 9.047zM838.543 176.996h-23.026l-8.909-9.047v-15.762h9.594v11.787l3.29 3.427h15.077l3.29-3.427v-10.69l-31.25-24.124v-15.763l8.908-9.046h23.026l8.91 9.046v15.078h-9.595v-11.103l-3.29-3.426h-15.076l-3.29 3.426v6.99l31.25 24.261v19.326l-8.909 9.047zM899.536 176.996h-40.844v-17.819l31.25-40.982v-4.25h-21.656v14.53h-9.594V104.35h40.844v17.133l-31.25 40.846v5.071h21.656v-15.077h9.594v24.672zM369.655 250.554h-17.407l-4.797 4.934v-4.934h-9.594v87.858h9.594v-15.214h22.204l9.046-9.046V259.6l-9.046-9.046zm-.548 59.623l-3.427 3.426h-18.229v-44.546l8.498-8.909h9.731l3.427 3.427v46.602zM423.383 250.554h-18.777l-3.152 4.112-4.25-4.112h-7.264v9.594h3.29l4.112 4.112v49.343h-7.402v9.595h30.017v-9.595h-13.021v-50.44l2.33-3.015h9.457l2.467 3.153v11.239h9.595v-14.666l-7.402-9.32zM473.822 323.198h-22.89l-8.908-9.046V259.6l8.909-9.046h22.89l9.045 9.046v54.552l-9.046 9.046zm-18.914-9.595h14.94l3.426-3.426v-46.602l-3.427-3.427h-14.94l-3.289 3.427v46.602l3.29 3.426zM524.946 298.39l9.046-8.91v-38.926H503.29l-9.868 9.868v28.647l4.797 3.838v13.569l7.676 7.676h16.995l1.508 1.507v11.514l-1.508 1.508h-29.33v9.594h33.305l7.127-7.127v-19.464l-7.127-7.127H509.87l-2.056-2.056v-4.112h17.133zm-21.93-33.993l4.25-4.249h17.132v25.357l-3.427 3.29h-12.198l-5.757-4.386v-20.012zM579.634 250.554h-18.778l-3.152 4.112-4.249-4.112h-7.264v9.594h3.29l4.111 4.112v49.343h-7.401v9.595h30.016v-9.595h-13.02v-50.44l2.33-3.015h9.457l2.467 3.153v11.239h9.594v-14.666l-7.401-9.32zM631.443 250.554h-28.509v9.594h24.534l2.056 1.919v15.077l-2.193-2.056h-20.148l-9.046 8.91v30.154l9.046 9.046h31.936v-65.106l-7.676-7.538zm-1.919 63.05h-18.366l-3.426-3.427v-22.205l3.426-3.29h12.199l6.167 6.032v22.89zM676.536 250.554l-5.619 5.62-5.62-5.62h-15.076v72.644h9.594v-63.05h1.508l4.797 4.797v9.458h9.594v-9.458l4.797-4.797h1.234v63.05h9.594v-72.644h-14.803zM726.29 240.685h-9.594v-13.57h9.594v13.57zm-9.183 82.513v-63.05h-14.803v-9.594h24.397v63.05l16.585-.138.137 9.732h-26.316zM786.46 323.198h-23.026l-8.91-9.046v-15.763h9.595v11.788l3.29 3.426h15.076l3.29-3.426v-10.691l-31.25-24.124V259.6l8.909-9.046h23.026l8.909 9.046v15.077h-9.594v-11.102l-3.29-3.427h-15.077l-3.289 3.427v6.99l31.25 24.26v19.327l-8.909 9.046zM844.437 313.603h-11.239L830.457 311v-50.85h16.996v-9.595h-16.996v-14.118h-9.594v14.118h-14.255v9.594h14.255v54.826l8.36 8.224h15.214v-9.595zM889.942 250.554v57.43h-3.838l-17.818-17.545v-39.885h-9.594v43.86l23.437 23.164h7.813v6.305l-4.798 4.935h-19.6v9.594h23.575l10.417-10.554v-77.304h-9.594z" fill="#fff" fill-rule="nonzero"/><g fill="#fff"><path d="M237.573 192.987h9.503v18.275h-9.503zM219.299 174.712h9.503v54.826h-9.503zM201.024 156.437h9.503v91.377h-9.503zM182.749 119.886h9.503v164.478h-9.503zM164.474 138.161h9.503v127.927h-9.503zM146.199 119.977h9.503v164.295h-9.503zM127.924 156.437h9.503v91.377h-9.503zM109.649 179.281h9.503v45.688h-9.503zM91.374 183.85h9.503v36.551h-9.503zM73.1 170.143h9.503v63.964H73.1zM54.825 138.161h9.503v127.927h-9.503zM36.55 156.437h9.503v91.377H36.55zM18.275 174.712h9.503v54.826h-9.503zM0 192.987h9.503v18.275H0z"/></g></svg>