<?xml version="1.0" encoding="UTF-8" standalone="no"?>
<!DOCTYPE svg PUBLIC "-//W3C//DTD SVG 1.1//EN" "http://www.w3.org/Graphics/SVG/1.1/DTD/svg11.dtd">
<svg width="100%" height="100%" viewBox="0 0 4933 2212" version="1.1" xmlns="http://www.w3.org/2000/svg" xmlns:xlink="http://www.w3.org/1999/xlink" xml:space="preserve" xmlns:serif="http://www.serif.com/" style="fill-rule:evenodd;clip-rule:evenodd;stroke-linejoin:round;stroke-miterlimit:2;">
    <g transform="matrix(1,0,0,1,-1049,-2663)">
        <text x="3152px" y="3631.5px" style="font-family:'Planck-Regular', 'Planck';font-size:750px;fill:white;">glosariusz</text>
        <text x="2867px" y="4431.5px" style="font-family:'Planck-Regular', 'Planck';font-size:750px;fill:white;">programisty</text>
    </g>
    <g transform="matrix(1,0,0,1,-201.5,-3929)">
        <g transform="matrix(1.18182,0,0,0.111235,1256.86,4486.89)">
            <rect x="207" y="4478" width="44" height="899" style="fill:white;"/>
        </g>
        <g transform="matrix(1.18182,0,0,0.333704,1156.86,3390.67)">
            <rect x="207" y="4478" width="44" height="899" style="fill:white;"/>
        </g>
        <g transform="matrix(1.18182,0,0,0.556174,1056.86,2294.45)">
            <rect x="207" y="4478" width="44" height="899" style="fill:white;"/>
        </g>
        <g transform="matrix(1.18182,0,0,1.00111,956.864,102.019)">
            <rect x="207" y="4478" width="44" height="899" style="fill:white;"/>
        </g>
        <g transform="matrix(1.18182,0,0,0.778643,856.864,1198.24)">
            <rect x="207" y="4478" width="44" height="899" style="fill:white;"/>
        </g>
        <g transform="matrix(1.18182,0,0,1,756.864,107.5)">
            <rect x="207" y="4478" width="44" height="899" style="fill:white;"/>
        </g>
        <g transform="matrix(1.18182,0,0,0.556174,656.864,2294.45)">
            <rect x="207" y="4478" width="44" height="899" style="fill:white;"/>
        </g>
        <g transform="matrix(1.18182,0,0,0.278087,556.864,3664.73)">
            <rect x="207" y="4478" width="44" height="899" style="fill:white;"/>
        </g>
        <g transform="matrix(1.18182,0,0,0.222469,456.864,3938.78)">
            <rect x="207" y="4478" width="44" height="899" style="fill:white;"/>
        </g>
        <g transform="matrix(1.18182,0,0,0.389321,356.864,3116.62)">
            <rect x="207" y="4478" width="44" height="899" style="fill:white;"/>
        </g>
        <g transform="matrix(1.18182,0,0,0.778643,256.864,1198.24)">
            <rect x="207" y="4478" width="44" height="899" style="fill:white;"/>
        </g>
        <g transform="matrix(1.18182,0,0,0.556174,156.864,2294.45)">
            <rect x="207" y="4478" width="44" height="899" style="fill:white;"/>
        </g>
        <g transform="matrix(1.18182,0,0,0.333704,56.8636,3390.67)">
            <rect x="207" y="4478" width="44" height="899" style="fill:white;"/>
        </g>
        <g transform="matrix(1.18182,0,0,0.111235,-43.1364,4486.89)">
            <rect x="207" y="4478" width="44" height="899" style="fill:white;"/>
        </g>
    </g>
</svg>
