<?xml version="1.0" encoding="UTF-8" standalone="no"?>
<!DOCTYPE svg PUBLIC "-//W3C//DTD SVG 1.1//EN" "http://www.w3.org/Graphics/SVG/1.1/DTD/svg11.dtd">
<svg width="100%" height="100%" viewBox="0 0 1342 900" version="1.1" xmlns="http://www.w3.org/2000/svg" xmlns:xlink="http://www.w3.org/1999/xlink" xml:space="preserve" xmlns:serif="http://www.serif.com/" style="fill-rule:evenodd;clip-rule:evenodd;stroke-linejoin:round;stroke-miterlimit:2;">
    <g transform="matrix(1,0,0,1,-201.5,-4585)">
        <g transform="matrix(0.954545,0,0,0.111235,1303.91,4486.89)">
            <rect x="207" y="4478" width="44" height="899" style="fill:white;"/>
        </g>
        <g transform="matrix(0.954545,0,0,0.333704,1203.91,3390.67)">
            <rect x="207" y="4478" width="44" height="899" style="fill:white;"/>
        </g>
        <g transform="matrix(0.954545,0,0,0.556174,1103.91,2294.45)">
            <rect x="207" y="4478" width="44" height="899" style="fill:white;"/>
        </g>
        <g transform="matrix(0.954545,0,0,1.00111,1003.91,102.019)">
            <rect x="207" y="4478" width="44" height="899" style="fill:white;"/>
        </g>
        <g transform="matrix(0.954545,0,0,0.778643,903.909,1198.24)">
            <rect x="207" y="4478" width="44" height="899" style="fill:white;"/>
        </g>
        <g transform="matrix(0.954545,0,0,1,803.909,107.5)">
            <rect x="207" y="4478" width="44" height="899" style="fill:white;"/>
        </g>
        <g transform="matrix(0.954545,0,0,0.556174,703.909,2294.45)">
            <rect x="207" y="4478" width="44" height="899" style="fill:white;"/>
        </g>
        <g transform="matrix(0.954545,0,0,0.278087,603.909,3664.73)">
            <rect x="207" y="4478" width="44" height="899" style="fill:white;"/>
        </g>
        <g transform="matrix(0.954545,0,0,0.222469,503.909,3938.78)">
            <rect x="207" y="4478" width="44" height="899" style="fill:white;"/>
        </g>
        <g transform="matrix(0.954545,0,0,0.389321,403.909,3116.62)">
            <rect x="207" y="4478" width="44" height="899" style="fill:white;"/>
        </g>
        <g transform="matrix(0.954545,0,0,0.778643,303.909,1198.24)">
            <rect x="207" y="4478" width="44" height="899" style="fill:white;"/>
        </g>
        <g transform="matrix(0.954545,0,0,0.556174,203.909,2294.45)">
            <rect x="207" y="4478" width="44" height="899" style="fill:white;"/>
        </g>
        <g transform="matrix(0.954545,0,0,0.333704,103.909,3390.67)">
            <rect x="207" y="4478" width="44" height="899" style="fill:white;"/>
        </g>
        <g transform="matrix(0.954545,0,0,0.111235,3.90909,4486.89)">
            <rect x="207" y="4478" width="44" height="899" style="fill:white;"/>
        </g>
    </g>
</svg>
