<?xml version="1.0" standalone="no"?>
<!DOCTYPE svg PUBLIC "-//W3C//DTD SVG 20010904//EN"
 "http://www.w3.org/TR/2001/REC-SVG-20010904/DTD/svg10.dtd">
<svg version="1.0" xmlns="http://www.w3.org/2000/svg"
 width="512.000000pt" height="512.000000pt" viewBox="0 0 512.000000 512.000000"
 preserveAspectRatio="xMidYMid meet">
<metadata>
Created by potrace 1.11, written by Peter Selinger 2001-2013
</metadata>
<g transform="translate(0.000000,512.000000) scale(0.100000,-0.100000)"
fill="#000000" stroke="none">
<path d="M0 2560 l0 -2560 2560 0 2560 0 0 2560 0 2560 -2560 0 -2560 0 0
-2560z m3072 408 c59 -25 119 -89 143 -151 14 -38 15 -50 5 -62 -24 -29 -48
-17 -70 32 -12 26 -31 59 -43 72 -69 75 -227 82 -307 14 -26 -21 -29 -28 -18
-39 7 -7 90 -67 183 -134 207 -148 232 -170 257 -228 55 -123 -35 -282 -184
-327 -66 -19 -163 -19 -218 0 -93 33 -182 126 -184 193 -1 31 3 38 22 40 17 3
26 -5 40 -30 28 -53 103 -122 148 -136 84 -25 186 -8 248 41 l29 24 -195 141
c-108 78 -209 157 -226 176 -80 91 -64 228 38 320 92 82 216 103 332 54z
m-2178 2 c78 -30 138 -76 134 -103 -5 -33 -39 -32 -94 3 -59 37 -103 50 -170
50 -41 0 -107 -14 -122 -25 -2 -2 7 -22 20 -46 18 -35 23 -60 23 -119 0 -84
-3 -90 -114 -288 l-64 -113 37 -38 c58 -59 118 -85 210 -89 76 -4 82 -3 162
38 46 23 90 40 99 36 43 -16 -5 -77 -89 -115 -59 -26 -100 -34 -169 -33 -220
3 -397 195 -397 432 0 184 101 337 267 406 77 31 189 33 267 4z m564 7 c17
-20 322 -795 322 -817 0 -38 -106 -38 -182 1 -70 36 -103 82 -168 237 -35 81
-67 159 -72 175 -6 15 -13 27 -16 27 -4 0 -48 -105 -98 -233 -82 -210 -93
-232 -114 -232 -52 0 -48 16 115 430 86 220 161 405 167 412 13 17 33 17 46 0z
m864 -7 c59 -17 130 -71 163 -124 25 -42 30 -61 33 -125 2 -67 -1 -82 -25
-126 -19 -33 -45 -61 -80 -84 l-51 -34 32 -33 c47 -48 84 -132 96 -215 11 -77
4 -99 -31 -99 -24 0 -29 10 -40 86 -14 100 -65 185 -131 220 -15 8 -50 14 -78
14 l-50 0 0 -148 c0 -102 -4 -152 -12 -160 -29 -29 -142 0 -197 51 -13 12 -34
45 -47 72 -23 49 -24 54 -24 376 0 179 3 329 7 332 10 11 394 8 435 -3z m1755
-6 c3 -9 2 -24 -4 -33 -8 -13 -32 -17 -122 -19 l-111 -3 0 -283 c0 -319 -4
-343 -68 -409 -58 -61 -104 -80 -202 -85 -72 -4 -88 -1 -100 13 -22 26 -1 49
49 53 l41 3 0 355 0 354 -114 0 c-122 0 -144 8 -131 50 6 20 12 20 381 20 338
0 375 -2 381 -16z m680 0 c3 -9 2 -24 -4 -33 -8 -13 -35 -16 -157 -19 l-146
-3 0 -194 0 -195 105 0 c95 0 105 -2 115 -21 21 -39 -2 -49 -116 -49 l-104 0
0 -52 c0 -59 -23 -116 -64 -165 l-27 -33 198 -2 198 -3 0 -30 0 -30 -279 -3
c-197 -2 -283 1 -292 9 -11 9 -14 72 -14 328 l0 317 26 52 c14 28 42 64 62 80
71 55 100 61 305 61 165 1 188 -1 194 -15z"/>
<path d="M2725 2751 c-9 -41 9 -92 43 -123 15 -14 109 -84 209 -156 l182 -131
6 30 c9 39 -9 90 -43 121 -15 14 -103 81 -197 148 -93 68 -175 127 -182 132
-8 6 -13 0 -18 -21z"/>
<path d="M533 2817 c-94 -102 -124 -226 -87 -359 l17 -59 67 119 c100 177 107
209 67 296 l-22 48 -42 -45z"/>
<path d="M1407 2782 c-15 -37 -27 -70 -27 -74 0 -15 171 -411 187 -433 22 -28
88 -68 107 -63 11 2 -18 85 -110 317 -68 172 -125 315 -127 317 -2 2 -16 -26
-30 -64z"/>
<path d="M2097 2888 c43 -46 56 -96 61 -230 l4 -128 68 0 c88 0 164 37 198 96
49 84 12 202 -81 255 -36 20 -58 24 -157 27 l-115 4 22 -24z"/>
<path d="M1950 2618 c0 -319 5 -345 72 -386 73 -45 70 -55 66 256 -3 227 -6
283 -19 313 -17 36 -84 99 -106 99 -10 0 -13 -60 -13 -282z"/>
<path d="M3630 2561 l0 -350 30 10 c33 12 86 68 101 106 5 13 9 150 9 304 l0
279 -70 0 -70 0 0 -349z"/>
<path d="M4322 2873 c-78 -51 -82 -69 -82 -381 0 -150 2 -272 5 -272 18 0 89
58 108 89 21 35 22 46 25 314 2 152 -1 277 -5 277 -5 0 -28 -12 -51 -27z"/>
</g>
</svg>
